<svg width="512" height="512" viewBox="0 0 512 512" xmlns="http://www.w3.org/2000/svg">
  <!-- full-bleed bone background (maskable-safe) -->
  <rect width="512" height="512" fill="#f4f1e9"/>

  <g>
    <!-- cupola / bell tower -->
    <rect x="238" y="120" width="36" height="46" rx="3" fill="#2a3a5f"/>
    <rect x="250" y="132" width="12" height="16" rx="2" fill="#f4f1e9"/>
    <path d="M232 122 L280 122 L256 96 Z" fill="#33456f"/>
    <rect x="253" y="86" width="6" height="14" rx="3" fill="#2a3a5f"/>

    <!-- hip roof with flared eaves -->
    <path d="M150 250 L256 156 L362 250 Q362 258 354 258 L158 258 Q150 258 150 250 Z" fill="#33456f"/>

    <!-- walls -->
    <rect x="168" y="256" width="176" height="140" rx="8" fill="#2a3a5f"/>

    <!-- windows -->
    <rect x="188" y="280" width="40" height="44" rx="4" fill="#f4f1e9"/>
    <rect x="284" y="280" width="40" height="44" rx="4" fill="#f4f1e9"/>

    <!-- arched door -->
    <path d="M226 396 L226 356 Q256 326 286 356 L286 396 Z" fill="#f4f1e9"/>
    <circle cx="276" cy="368" r="4" fill="#2a3a5f"/>

    <!-- ground line -->
    <rect x="150" y="396" width="212" height="10" rx="5" fill="#33456f"/>
  </g>
</svg>
